# xmcd
#
# Track frame offsets:
#	150
#	17236
#	26521
#	36805
#	49572
#	62501
#	75754
#	86632
#	98482
#	112491
#	125555
#	137539
#	153734
#	163397
#	176137
#	186529
#	200727
#	208824
#	222590
#	235762
#	245803
#	257383
#
# Disc length: 3596 seconds
#
# Revision: 2
# Processed by: cddbd v1.5.2PL0 Copyright (c) Steve Scherf et al.
# Submitted via: EasyCDDAExtractor 2010.6.0.0
#
DISCID=420e0a16
DTITLE=LÉO CANHOTO and ROBERTINHO - LÉO CANHOTO and ROBERTINHO - OS GRANDE SUCESSO
DTITLE=S 
DYEAR=1999
DGENRE=Sertanejo
TTITLE0=O ÚLTIMO JULGAMENTO (BY DJ GILMAR SINISTRO)
TTITLE1=A GAIVOTA (BY DJ GILMAR SINISTRO)
TTITLE2=APARTAMENTO 37 (BY DJ GILMAR SINISTRO)
TTITLE3=QUATRO HORAS (BY DJ GILMAR SINISTRO)
TTITLE4=TRISTE CALADO (BY DJ GILMAR SINISTRO)
TTITLE5=A COLINA DO AMOR (BY DJ GILMAR SINISTRO)
TTITLE6=LINDA ESTUDANTE (BY DJ GILMAR SINISTRO)
TTITLE7=FOFINHA (BY DJ GILMAR SINISTRO)
TTITLE8=SOLDADO SEM FARDA (BY DJ GILMAR SINISTRO)
TTITLE9=VOU TOMÁ UM PINGÃO (BY DJ GILMAR SINISTRO)
TTITLE10=LÁGRIMAS DE UM HOMEM (BY DJ GILMAR SINISTRO)
TTITLE11=MEU VELHO PAI (BY DJ GILMAR SINISTRO)
TTITLE12=TAPINHA DE AMOR (BY DJ GILMAR SINISTRO)
TTITLE13=EU E A DINHA (BY DJ GILMAR SINISTRO)
TTITLE14=EU VOCÈ E A CAMISOLA (BY DJ GILMAR SINISTRO)
TTITLE15=PASSAPORTE PARA O ASILO (BY DJ GILMAR SINISTRO)
TTITLE16=DESPEITO (BY DJ GILMAR SINISTRO)
TTITLE17=MÃO DE FERRO (BY DJ GILMAR SINISTRO)
TTITLE18=AMARGA DESPEDIDA (BY DJ GILMAR SINISTRO)
TTITLE19=QUEM VÊ CARA NÃO VÊ CORAÇÃO (BY DJ GILMAR SINISTRO)
TTITLE20=CANÇÃO DO CARRETEIRO (BY DJ GILMAR SINISTRO)
TTITLE21=O PRESIDENTE E O LAVRADOR (BY DJ GILMAR SINISTRO)
EXTD=(SUCESSOS DE OURO)
EXTT0=
EXTT1=
EXTT2=
EXTT3=
EXTT4=
EXTT5=
EXTT6=
EXTT7=
EXTT8=
EXTT9=
EXTT10=
EXTT11=
EXTT12=
EXTT13=
EXTT14=
EXTT15=
EXTT16=
EXTT17=
EXTT18=
EXTT19=
EXTT20=
EXTT21=
PLAYORDER=
